<!--?xml version="1.0" standalone="no"?-->              <svg id="sw-js-blob-svg" viewBox="0 0 100 100" xmlns="http://www.w3.org/2000/svg">                    <defs>                         <linearGradient id="sw-gradient" x1="0" x2="1" y1="1" y2="0">                            <stop id="stop1" stop-color="rgba(248, 117, 55, 1)" offset="0%"></stop>                            <stop id="stop2" stop-color="rgba(251, 168, 31, 1)" offset="100%"></stop>                        </linearGradient>                    </defs>                <path fill="url(#sw-gradient)" d="M25,-26C32,-24,37,-15.7,37.5,-7.5C37.9,0.8,33.8,9,29.2,16.8C24.6,24.7,19.5,32.2,13.6,32.1C7.6,32,0.8,24.4,-8.3,21.6C-17.4,18.8,-28.8,21,-31.9,17.5C-34.9,14,-29.7,4.9,-25.5,-2.1C-21.4,-9,-18.4,-13.6,-14.3,-16.2C-10.2,-18.8,-5.1,-19.3,2,-21.7C9,-24,18,-28.1,25,-26Z" width="100%" height="100%" transform="translate(50 50)" stroke-width="0" style="transition: all 0.3s ease 0s;"></path>              </svg>